<svg xmlns="http://www.w3.org/2000/svg" width="20" height="20" viewBox="0 0 20 20"><g fill="none" fill-rule="evenodd"><rect width="18" height="18" x="1" y="1" stroke="#FF7283" stroke-width="2" rx="9"/><path fill="#FF7283" d="M7.692 10.474c0-.09-.003-.17 0-.25.005-.06-.02-.08-.076-.093-.409-.09-.817-.184-1.226-.275-.238-.054-.475-.109-.713-.161-.362-.079-.582-.297-.644-.662-.121-.706-.24-1.411-.353-2.118-.064-.402.184-.78.56-.851.439-.083.848.17.912.626.074.52.17 1.038.255 1.557.01.06.032.083.092.096.402.092.804.187 1.221.285-.018-.36.023-.704.202-1.024l.867.304.723.254c.29.102.584.105.874.006.512-.174 1.02-.356 1.53-.535l.087-.029c.209.312.202.663.197 1.023l.54-.126c.229-.053.457-.109.686-.159.056-.011.079-.036.087-.09.084-.514.17-1.026.255-1.54.07-.435.409-.7.848-.659.317.03.632.365.628.698-.004.203-.043.406-.076.608-.096.59-.198 1.178-.293 1.767a.66.66 0 0 1-.487.535c-.687.156-1.373.311-2.061.464-.072.016-.107.04-.098.12.008.073.001.148.001.247.132 0 .259-.004.386 0 .502.013 1.004.033 1.507.04a.892.892 0 0 1 .635.252c.252.24.515.468.77.703.245.224.346.5.244.822-.16.498-.774.653-1.19.307-.226-.189-.448-.383-.673-.573a.19.19 0 0 0-.1-.044c-.524-.02-1.046-.036-1.569-.053l-.039.004c0 .11-.003.223.003.334.002.022.04.047.066.062.507.286 1.009.582 1.523.855.303.161.462.39.51.73.098.67.22 1.336.331 2.004.066.392-.16.773-.524.858-.405.096-.839-.134-.915-.596-.093-.563-.19-1.125-.283-1.688-.012-.07-.037-.114-.102-.15-.247-.135-.49-.277-.738-.418-.392.923-1.075 1.456-2.084 1.453-1.005-.002-1.686-.537-2.082-1.453-.26.148-.521.295-.78.447a.116.116 0 0 0-.047.076c-.098.565-.194 1.13-.288 1.696-.07.427-.407.703-.834.648a.685.685 0 0 1-.607-.63c-.013-.2.025-.407.058-.609.093-.587.197-1.172.292-1.758a.74.74 0 0 1 .39-.553c.293-.164.585-.33.877-.495.246-.138.49-.278.74-.414.053-.03.073-.063.07-.124-.005-.09-.002-.178-.002-.277h-.083c-.496.016-.992.031-1.488.051a.262.262 0 0 0-.149.057c-.225.186-.443.38-.668.565-.285.233-.684.24-.946.023a.726.726 0 0 1-.067-1.076c.284-.295.583-.576.882-.857.14-.131.32-.173.51-.178.616-.016 1.231-.035 1.846-.053l.08-.006"/><path fill="#FF7283" d="M9.969 7.462c-.137-.044-.295-.092-.45-.145-.418-.145-.835-.293-1.252-.44-.233-.081-.391-.23-.445-.477-.032-.143.017-.272.061-.4.119-.346.308-.648.575-.9.053-.05.058-.087.03-.152-.252-.583-.498-1.168-.747-1.753a.48.48 0 0 1 .006-.43c.082-.155.21-.258.39-.252.194.006.35.095.437.275.072.146.133.298.198.447l.548 1.248c.018.042.029.082.094.061.385-.127.773-.113 1.158-.006.086.024.12.002.153-.075.236-.548.477-1.094.716-1.64a.532.532 0 0 1 .22-.261.417.417 0 0 1 .498.044c.148.127.21.326.14.499-.13.32-.267.635-.4.953-.123.289-.242.58-.37.867-.04.087-.024.134.04.197.292.287.494.63.597 1.027a.562.562 0 0 1-.325.683c-.226.097-.462.17-.694.252a69.23 69.23 0 0 1-.968.335c-.058.02-.12.025-.21.043"/></g></svg>