<svg xmlns="http://www.w3.org/2000/svg" width="9" height="11" viewBox="0 0 9 11"><g fill="#A1A1A1" fill-rule="evenodd"><path d="M2.769 6.214c0-.066-.002-.125 0-.183.004-.045-.014-.06-.057-.069-.307-.066-.613-.134-.92-.201-.178-.04-.356-.08-.534-.118-.271-.058-.437-.218-.483-.485C.684 4.64.595 4.122.51 3.604a.537.537 0 0 1 .42-.624c.329-.06.636.125.684.46.056.381.128.76.191 1.141.008.044.025.06.069.07.302.068.603.138.916.21-.013-.265.017-.517.152-.751l.65.223.542.186a1 1 0 0 0 .656.004c.383-.127.765-.26 1.147-.392l.065-.021c.157.228.152.486.148.75l.405-.092c.172-.04.343-.08.515-.117.042-.009.058-.027.065-.067.063-.376.128-.752.19-1.128.053-.32.308-.514.637-.484.238.022.474.268.47.512-.002.149-.031.298-.056.446-.072.432-.148.863-.22 1.295a.488.488 0 0 1-.365.393c-.515.115-1.03.228-1.546.34-.053.012-.08.03-.073.089.006.053 0 .108 0 .18.1 0 .195-.002.29 0 .376.01.753.025 1.13.03.186.001.34.06.476.185.19.176.387.343.579.515.183.165.259.367.182.603-.12.365-.58.479-.892.225-.17-.138-.336-.28-.505-.42a.144.144 0 0 0-.075-.032L6.18 7.294l-.03.003c0 .08-.002.163.003.245.002.016.03.034.05.045.38.21.756.427 1.142.627a.666.666 0 0 1 .383.535c.073.491.164.98.248 1.47.049.288-.12.567-.393.63-.304.07-.63-.1-.686-.438-.07-.413-.144-.825-.213-1.238-.009-.05-.027-.083-.076-.11-.186-.099-.368-.203-.554-.307-.294.678-.806 1.069-1.563 1.066-.754-.002-1.264-.393-1.561-1.066-.196.11-.392.217-.585.329a.083.083 0 0 0-.036.055c-.073.415-.146.83-.216 1.244-.052.313-.305.516-.625.475a.508.508 0 0 1-.456-.462c-.01-.147.02-.299.044-.446.07-.43.148-.86.22-1.29a.541.541 0 0 1 .291-.405c.22-.12.439-.242.658-.363.185-.101.368-.204.555-.304.04-.021.055-.046.053-.09-.004-.066-.001-.131-.001-.204h-.063c-.372.012-.744.023-1.116.038a.2.2 0 0 0-.111.042c-.17.136-.333.278-.502.413a.57.57 0 0 1-.71.018.525.525 0 0 1-.05-.79c.213-.216.438-.422.662-.628a.563.563 0 0 1 .383-.13c.462-.012.923-.026 1.384-.04.018 0 .034-.002.06-.004"/><path d="M4.477 4.005c-.103-.032-.221-.067-.338-.106-.313-.106-.626-.215-.94-.322-.173-.06-.292-.169-.333-.35-.024-.105.013-.2.046-.294.09-.253.232-.475.432-.66.039-.036.043-.064.022-.112-.189-.427-.374-.856-.56-1.285A.344.344 0 0 1 2.81.561c.06-.114.156-.19.292-.185.145.005.263.07.328.201.053.108.1.22.148.329l.41.914c.015.032.023.061.072.046.288-.094.579-.083.868-.005.065.018.09.002.115-.055.177-.402.358-.802.537-1.203a.394.394 0 0 1 .165-.191.318.318 0 0 1 .373.032c.112.094.158.24.105.366-.097.234-.2.466-.3.699-.092.212-.182.426-.278.636-.03.064-.017.098.03.145.22.21.371.461.448.753a.41.41 0 0 1-.243.5c-.17.072-.347.125-.521.185-.241.083-.483.166-.726.246-.043.015-.09.018-.157.031"/></g></svg>