<svg xmlns="http://www.w3.org/2000/svg" viewBox="0 0 11.93 10.43"><defs><style>.cls-1{fill:#a1a1a1}</style></defs><g id="Layer_2" data-name="Layer 2"><path class="cls-1" d="M1.75 1.42A6.47 6.47 0 0 1 6 0a6.44 6.44 0 0 1 4.21 1.42 4.3 4.3 0 0 1 1.75 3.42 4.31 4.31 0 0 1-1.75 3.43A6.49 6.49 0 0 1 6 9.69a7.32 7.32 0 0 1-2.2-.33 5.54 5.54 0 0 1-3.24 1.07.52.52 0 0 1-.51-.34.52.52 0 0 1 .1-.59l.22-.25a6.32 6.32 0 0 0 .44-.62 5.23 5.23 0 0 0 .43-.85A4.18 4.18 0 0 1 0 4.84a4.29 4.29 0 0 1 1.75-3.42zM6 8.57a5.45 5.45 0 0 0 3.42-1.1 3.25 3.25 0 0 0 1.42-2.63 3.26 3.26 0 0 0-1.45-2.63A5.44 5.44 0 0 0 6 1.12a5.45 5.45 0 0 0-3.46 1.09 3.26 3.26 0 0 0-1.42 2.63A3.09 3.09 0 0 0 2.05 7l.47.51-.23.65a8.45 8.45 0 0 1-.47 1 4.85 4.85 0 0 0 1.33-.7l.46-.3.54.16A6.18 6.18 0 0 0 6 8.57z" id="Layer_1-2" data-name="Layer 1"/></g></svg>