<svg xmlns="http://www.w3.org/2000/svg" width="10" height="11" viewBox="0 0 10 11"><g fill="#A1A1A1" fill-rule="evenodd"><path d="M7.273 5.958a.456.456 0 0 0 .454-.458v-.963a2.291 2.291 0 0 0 1.818-2.245A2.285 2.285 0 0 0 7.273 0 2.285 2.285 0 0 0 5 2.292a2.29 2.29 0 0 0 1.818 2.245V5.5c0 .253.203.458.455.458"/><path d="M4.382.917C1.916 1.225 0 3.347 0 5.916c0 2.78 2.243 5.041 5 5.041s5-2.262 5-5.041a5.06 5.06 0 0 0-.27-1.631c-.216.264-.474.49-.762.674.074.311.123.63.123.957 0 .655-.156 1.273-.427 1.823-.92.501-1.317.215-1.729-.096-.29-.22-.687-.52-1.192-.32a1.935 1.935 0 0 0-1.092 1.083c-.196.471-.237 1.047-.132 1.604a4.068 4.068 0 0 1-2.334-1.108c.34-.683.31-1.384-.1-1.994a4.764 4.764 0 0 0-.37-.468.5.5 0 0 1 .143-.775c.364-.184.782-.385 1.038-.719.594-.774-.053-1.954-.188-2.182-.037-.062-.077-.118-.116-.176.447-.33.963-.569 1.52-.696.038-.345.132-.672.27-.975"/></g></svg>