<svg xmlns="http://www.w3.org/2000/svg" width="25" height="15.893" viewBox="0 0 25 15.893"><defs><style>.a{fill:#009108;stroke:#007c07}.b{fill:#007c03}.c{fill:#fff}.d{filter:url(#a)}</style><filter id="a" x="0" y="0" width="25" height="15.893" filterUnits="userSpaceOnUse"><feOffset dy="1"/><feGaussianBlur result="b"/><feFlood flood-opacity=".271"/><feComposite operator="in" in2="b"/><feComposite in="SourceGraphic"/></filter></defs><g class="d"><path class="a" d="M22.26 13.773a76.739 76.739 0 0 1-19.521 0A2.684 2.684 0 0 1 .5 11.202v-7.5a2.684 2.684 0 0 1 2.239-2.571 76.739 76.739 0 0 1 19.521 0 2.685 2.685 0 0 1 2.24 2.571v7.5a2.685 2.685 0 0 1-2.24 2.571z"/></g><path class="b" d="M16.032 7.701L9.984 4.354v6.694z"/><path class="c" d="M15.798 7.567L9.751 4.225v6.694z"/></svg>