<svg xmlns="http://www.w3.org/2000/svg" width="25" height="15.893" viewBox="0 0 25 15.893"><defs><style>.a{stroke:#e2e2e2;fill:url(#a)}.b{fill:#007c03}.c{fill:#00c00a}.d{filter:url(#b)}</style><linearGradient id="a" x1=".5" x2=".5" y2="1" gradientUnits="objectBoundingBox"><stop offset="0" stop-color="#fff"/><stop offset="1" stop-color="#e2e2e2"/></linearGradient><filter id="b" x="0" y="0" width="25" height="15.893" filterUnits="userSpaceOnUse"><feOffset dy="1"/><feGaussianBlur result="c"/><feFlood flood-opacity=".271"/><feComposite operator="in" in2="c"/><feComposite in="SourceGraphic"/></filter></defs><g class="d"><path class="a" d="M22.26 13.773a76.739 76.739 0 0 1-19.521 0A2.684 2.684 0 0 1 .5 11.202v-7.5a2.684 2.684 0 0 1 2.239-2.571 76.739 76.739 0 0 1 19.521 0 2.685 2.685 0 0 1 2.24 2.571v7.5a2.685 2.685 0 0 1-2.24 2.571z"/></g><path class="b" d="M16.312 7.296l-6.048-3.347v6.694z"/><path class="c" d="M16.078 7.162L10.031 3.82v6.694z"/></svg>