<svg xmlns="http://www.w3.org/2000/svg" width="262" height="262" viewBox="0 0 262 262"><defs><style>.a{fill:#fff}.b{fill:#09f}.c{filter:url(#a)}</style><filter id="a" x="0" y="0" width="262" height="262" filterUnits="userSpaceOnUse"><feOffset dy="1"/><feGaussianBlur stdDeviation="1" result="b"/><feFlood flood-opacity=".161"/><feComposite operator="in" in2="b"/><feComposite in="SourceGraphic"/></filter></defs><g transform="translate(3 2)"><g class="c" transform="translate(-3 -2)"><ellipse class="a" cx="128" cy="128" rx="128" ry="128" transform="translate(3 2)"/></g><ellipse class="b" cx="111.26" cy="111.26" rx="111.26" ry="111.26" transform="translate(16.74 16.74)"/><path class="a" d="M170.312 136.996l-34.99 34.99a36.281 36.281 0 1 1-51.309-51.308l34.989-34.99-37.325-37.325-34.992 34.988A89.068 89.068 0 1 0 172.647 209.31l34.989-34.989zm8.775-9.083L211.74 95.26l37.325 37.324-32.653 32.654zM90.761 39.587l32.653-32.653 37.325 37.324-32.653 32.654z"/></g></svg>