<svg width="762" height="128" viewBox="0 0 762 128" xmlns="http://www.w3.org/2000/svg"><title>Group 2</title><g fill="none" fill-rule="evenodd"><path d="M520 26h244v80H520z"/><path d="M532.516 71.8h13.524c15.708 0 22.26-9.072 23.436-18.9l.064-.589C570.48 42.713 566.138 34 550.744 34h-19.236l-7.728 63h5.712l3.024-25.2zm4.032-32.508h14.28c11.844 0 13.188 7.56 12.432 13.608l-.056.42c-.851 5.972-4.164 13.188-15.736 13.188h-14.28l3.36-27.216zm64.26 15.288c-1.596-.252-3.108-.42-5.04-.42-4.704 0-9.744 1.428-14.028 4.368L580.9 55h-3.276L572.5 97h5.88l4.284-34.944c3.276-1.764 6.804-2.688 12.516-2.688 2.1 0 3.696.252 4.956.672l.672-5.46zM639.952 76l.091-.766C641.46 62.792 639.16 54.16 625 54.16c-14.22 0-18.644 8.81-20.28 21.456l-.048.384c-1.596 12.852.588 21.84 14.952 21.84 14.448 0 18.732-8.988 20.328-21.84zm-5.844-.296l-.157 1.248c-1.179 9.013-3.103 15.68-13.655 15.68-10.974 0-10.922-6.994-9.78-16.34l.155-1.233c1.174-9.02 3.023-15.691 13.741-15.691 10.806 0 10.837 6.992 9.696 16.336zm58.344-17.26l-.083.636c-.977 6.86-4.905 14.17-33.097 33.888l-.42 4.032h35.7l.588-5.208h-27.636l2.934-2.165c22.688-16.822 26.681-21.987 27.81-31.099l.052-.444c.783-7.244-1.53-14.424-16.348-14.424-4.116 0-10.332 1.092-13.608 2.352l-.672 5.376c3.528-1.176 8.484-2.52 13.608-2.52 9.24 0 11.928 3.36 11.172 9.576zm13.776 30.996a4.16 4.16 0 0 1 4.2 4.2 4.16 4.16 0 0 1-4.2 4.2 4.16 4.16 0 0 1-4.2-4.2 4.16 4.16 0 0 1 4.2-4.2zm38.22-45.78c15.372 0 18.312 9.66 16.212 27.048l-.13 1.034c-2.189 16.74-7.653 26.098-22.718 26.098-15.218 0-18.17-9.55-16.19-26.613l.062-.519c2.1-17.388 7.392-27.048 22.764-27.048zm-.588 5.208c-10.836 0-14.532 7.896-16.212 21.84l-.102.84c-1.588 13.581.319 21.084 10.938 21.084 10.49 0 14.21-7.321 16.037-20.592l.175-1.332c1.68-13.944 0-21.84-10.836-21.84z" fill="#5EBB1E" fill-rule="nonzero"/><g fill="#5EBB1E" fill-rule="nonzero"><path d="M74.081 128c23.764-3.336 43.733-19.415 51.919-41.807a34 34 0 0 1-2.332.785 22.977 22.977 0 0 1-19.936-3.482A38.93 38.93 0 0 0 100.264 81c-.994 6.039-6.592 14.513-19.369 18.357-6.996 2.013-14.52 2.154-19.895-.845l1.764 4.408c.71 1.751 1.907 4.65 2.637 6.4-.02 0 4.624 10.97 8.68 18.68z"/><path d="M14.643 37.903l19.025-3.526a4.037 4.037 0 0 1 4.252 2.184L51 68.97a29.407 29.407 0 0 0 3.305 5.57s9.029 12.82 22.794 9.595c9.27-2.104 13.603-9.035 13.906-14.022a9.724 9.724 0 0 0-1.008-5.429L74.337 29.65a2.132 2.132 0 0 1 .013-1.98 2.156 2.156 0 0 1 1.64-1.125L91.851 23.6a3.714 3.714 0 0 1 3.789 2.004l17.352 36.918c.9 1.811 1.96 3.54 3.164 5.168 0 0 3.608 5.148 9.392 4.166a8.547 8.547 0 0 0 3.063-.76C132.303 37.622 109.31 7.015 75.97 1.03 42.63-4.957 10.315 15.717 1.99 48.357c-8.326 32.64 10.177 66.12 42.359 76.643-1.733-3.566-3.507-7.492-4.938-11.338L12.365 41.388a2.63 2.63 0 0 1 .287-2.292 2.663 2.663 0 0 1 1.99-1.193z"/></g><g fill="#5EBB1E"><path d="M222.221 47.255h-15.14a.503.503 0 0 1-.502-.503V34.504c0-.279.225-.504.502-.504h47.029c.277 0 .502.225.502.504V46.71a.503.503 0 0 1-.502.504h-15.321a.503.503 0 0 0-.503.503v48.81a.503.503 0 0 1-.503.505h-14.557a.503.503 0 0 1-.502-.504v-48.79a.503.503 0 0 0-.503-.484zm22.76 27.316c0-13.557 9.672-23.871 24.128-23.871s24.007 10.314 24.007 23.871c0 13.558-9.49 23.872-24.007 23.872-14.517 0-24.027-10.314-24.027-23.892l-.1.02zm33.578 0c0-8.199-3.338-13.738-9.59-13.738-6.254 0-9.491 5.54-9.491 13.738 0 8.2 3.257 13.658 9.49 13.658 6.233 0 9.711-5.479 9.711-13.678l-.12.02zm20.106-22.642h12.727c.278 0 .503.225.503.503v6.547h.261c3.157-5.378 7.158-7.594 11.24-7.755a7.486 7.486 0 0 1 2.493.241c.195.07.325.256.322.464v11.986h-.362c-7.58-1.028-13.35 3.082-13.35 12.852v19.762a.503.503 0 0 1-.504.504h-13.33a.503.503 0 0 1-.503-.504V52.412a.504.504 0 0 1 .583-.503l-.08.02zm32.31 0h12.728c.278 0 .503.225.503.503v6.547h.261c3.157-5.378 7.158-7.594 11.24-7.755a7.486 7.486 0 0 1 2.493.241c.195.07.324.256.321.464v11.986h-.362c-7.5-1.048-13.29 3.062-13.29 12.892V96.57a.503.503 0 0 1-.503.504h-13.33a.503.503 0 0 1-.503-.504V52.412a.505.505 0 0 1 .523-.503l-.08.02zm27.968 22.44c0-13.476 9.51-23.75 23.223-23.75a22.092 22.092 0 0 1 15.381 5.64c5.268 4.836 7.902 12.49 7.922 21.415a.523.523 0 0 1-.502.503H373.7a.522.522 0 0 0-.502.605c1.005 5.72 4.323 9.266 10.053 9.266a7.497 7.497 0 0 0 7.339-4.21.482.482 0 0 1 .442-.282h13.009a.502.502 0 0 1 .502.644 18.49 18.49 0 0 1-7.399 10.073 23.773 23.773 0 0 1-14.074 4.15c-14.899-.081-24.128-10.395-24.128-24.053zm31.346-4.753a.522.522 0 0 0 .503-.584c-.704-5.037-4.022-8.24-8.465-8.24-5.248 0-8.042 3.183-9.108 8.2a.525.525 0 0 0 .503.624h16.567zm20.508-17.707h12.808c.278 0 .503.225.503.503v5.66h.261a15.776 15.776 0 0 1 13.974-7.453c9.852 0 15.643 7.05 15.643 17.083v28.827a.503.503 0 0 1-.543.423h-13.27a.503.503 0 0 1-.503-.504V70.583c0-4.754-2.373-8.058-7.037-8.058-4.665 0-7.922 4.029-7.922 9.508V96.53a.503.503 0 0 1-.503.504h-13.33a.503.503 0 0 1-.503-.504V52.412a.505.505 0 0 1 .523-.503h-.1zm51.895 33.218v-23.73a.503.503 0 0 0-.503-.504h-4.986a.503.503 0 0 1-.503-.504v-8.057c0-.279.225-.504.503-.504h4.986a.503.503 0 0 0 .503-.504V38.15c0-.278.225-.504.502-.504h12.989c.277 0 .503.226.503.504v13.275c0 .278.225.504.502.504h7.178c.278 0 .503.225.503.503v8.058a.503.503 0 0 1-.503.504h-7.178a.503.503 0 0 0-.502.503v20.548c0 3.525 2.01 4.412 5.006 4.412h4.805c.278 0 .503.225.503.503v9.569a.503.503 0 0 1-.422.483 68.754 68.754 0 0 1-9.55.605c-8.264-.06-14.256-2.8-14.256-12.49h-.08zm-293.19-33.44h13.311c.278 0 .503.225.503.504V78.52c0 5.056 2.211 7.695 6.796 7.695 4.946 0 8.042-3.626 8.042-9.126V52.191c0-.279.225-.504.503-.504h13.41c.278 0 .503.225.503.504v44.318a.503.503 0 0 1-.502.503H199.2a.503.503 0 0 1-.503-.503v-5.057h-.261a12.062 12.062 0 0 1-10.697 6.729 7.088 7.088 0 0 1-4.423-1.33h-.181v14.645a.503.503 0 0 1-.503.504h-13.13a.503.503 0 0 1-.502-.504V52.191c0-.279.225-.504.503-.504z" fill-rule="nonzero"/><path d="M495.364 44.942c.348 0 .674-.01.985-.035a2.5 2.5 0 0 0 .824-.19c.24-.108.434-.271.575-.492.144-.218.216-.526.216-.921 0-.333-.066-.598-.191-.797a1.292 1.292 0 0 0-.497-.453 2.144 2.144 0 0 0-.701-.217 5.303 5.303 0 0 0-.781-.058h-2.035v3.163h1.605zm.679-4.415c1.175 0 2.044.234 2.612.706.565.47.846 1.183.846 2.14 0 .895-.248 1.55-.746 1.967-.497.42-1.116.666-1.853.74l2.825 4.393h-1.65l-2.69-4.279h-1.628v4.279h-1.537v-9.946h3.82zm-6.976 7.84c.354.89.845 1.659 1.47 2.31a6.82 6.82 0 0 0 2.215 1.538c.853.37 1.776.556 2.77.556.98 0 1.891-.186 2.736-.556a6.835 6.835 0 0 0 2.203-1.538 7.042 7.042 0 0 0 1.47-2.31c.355-.886.532-1.854.532-2.901a7.529 7.529 0 0 0-.533-2.845 6.984 6.984 0 0 0-1.469-2.288 6.958 6.958 0 0 0-2.203-1.523 6.698 6.698 0 0 0-2.735-.556c-.995 0-1.918.184-2.77.556a6.94 6.94 0 0 0-2.216 1.523 7.017 7.017 0 0 0-1.47 2.288 7.568 7.568 0 0 0-.53 2.845c0 1.047.177 2.015.53 2.9zm-1.389-6.247a8.471 8.471 0 0 1 1.842-2.685 8.631 8.631 0 0 1 2.714-1.785 8.426 8.426 0 0 1 3.289-.65c1.16 0 2.252.217 3.278.65a8.497 8.497 0 0 1 2.69 1.785 8.58 8.58 0 0 1 1.83 2.685 8.247 8.247 0 0 1 .679 3.346c0 1.229-.226 2.363-.678 3.401a8.643 8.643 0 0 1-1.831 2.71 8.228 8.228 0 0 1-2.69 1.786 8.487 8.487 0 0 1-3.278.637 8.569 8.569 0 0 1-3.289-.637 8.356 8.356 0 0 1-4.556-4.496c-.452-1.038-.678-2.172-.678-3.401 0-1.198.226-2.313.678-3.346z"/></g></g></svg>