<svg xmlns="http://www.w3.org/2000/svg" width="18.987" height="19.997" viewBox="0 0 18.987 19.997"><defs><style>.a{fill:#00c00a}.b{filter:url(#a)}</style><filter id="a" x="0" y="0" width="18.987" height="19.997" filterUnits="userSpaceOnUse"><feOffset dy="1"/><feGaussianBlur result="b"/><feFlood flood-color="#fff"/><feComposite operator="in" in2="b"/><feComposite in="SourceGraphic"/></filter></defs><g class="b"><path class="a" d="M13.949 2.389A8.173 8.173 0 1 0 12.88 14.85a1.437 1.437 0 0 0 .127.148l3.587 3.587a1.404 1.404 0 0 0 1.986-1.986l-3.587-3.587a1.4 1.4 0 0 0-.146-.125 8.185 8.185 0 0 0-.898-10.498zm-.963 10.6a6.811 6.811 0 1 1 0-9.632 6.819 6.819 0 0 1 0 9.627z"/></g></svg>