<svg xmlns="http://www.w3.org/2000/svg" width="20" height="20" viewBox="0 0 20 20"><g fill="none" fill-rule="evenodd"><rect width="18" height="18" x="1" y="1" stroke="#B2B2B2" stroke-width="2" rx="9"/><path fill="#B2B2B2" d="M10.778 10.556c0 .306-.299.555-.667.555-.368 0-.667-.249-.667-.555V7.222c0-.306.3-.555.667-.555.368 0 .667.249.667.555v3.334zm-.667 3a.667.667 0 1 1 0-1.334.667.667 0 0 1 0 1.334zM10 3.333A6.674 6.674 0 0 0 3.333 10 6.674 6.674 0 0 0 10 16.667 6.674 6.674 0 0 0 16.667 10 6.674 6.674 0 0 0 10 3.333z"/></g></svg>