<svg xmlns="http://www.w3.org/2000/svg" width="14" height="12" viewBox="0 0 14 12"><g fill="none" fill-rule="evenodd"><path fill="#444" d="M9.735 8.306a.285.285 0 0 1-.202-.488 2.575 2.575 0 0 0 0-3.636.285.285 0 1 1 .404-.404 3.147 3.147 0 0 1 0 4.444.285.285 0 0 1-.202.084"/><path fill="#444" d="M11.351 9.922a.285.285 0 0 1-.202-.488 4.863 4.863 0 0 0 0-6.868.285.285 0 1 1 .404-.404 5.434 5.434 0 0 1 0 7.676.285.285 0 0 1-.202.084"/><path fill="#C6C6C6" d="M7.714 12a.284.284 0 0 1-.171-.057L3.048 8.57H.57A.571.571 0 0 1 0 8V4a.57.57 0 0 1 .571-.571h2.477L7.543.057A.286.286 0 0 1 8 .286v11.428a.286.286 0 0 1-.286.286"/><path fill="#999" d="M1.143 3.429h.571V8.57h-.571z"/></g></svg>