<svg xmlns="http://www.w3.org/2000/svg" width="15" height="18" viewBox="0 0 15 18"><g fill="none" fill-rule="evenodd"><path fill="#4A90E2" d="M14.087 18H.783A.782.782 0 0 1 0 17.217V.783C0 .35.35 0 .783 0h9.39l4.697 4.696v12.521c0 .433-.35.783-.783.783"/><path fill="#1F5695" d="M10.174 0v3.913c0 .432.35.783.783.783h3.913L10.174 0z"/><path fill="#FFF" d="M5.087 12.522a.392.392 0 0 1-.391-.392V5.87a.391.391 0 0 1 .608-.326l4.695 3.13a.391.391 0 0 1 0 .652l-4.695 3.13a.39.39 0 0 1-.217.066"/></g></svg>