<svg xmlns="http://www.w3.org/2000/svg" width="21" height="21" viewBox="0 0 21 21"><g fill="none" fill-rule="evenodd"><path fill="#72C472" d="M8.217 1.174c.067.738 1.487 1.242 1.957 1.956.626.952.391 1.957 1.174 1.957.414 0 1.604.028 4.667-1.716A8.986 8.986 0 0 0 8.401.022a2.472 2.472 0 0 0-.184 1.152M4.304 14.478c.447-.748.82-1.92 0-3.13C3.76 10.543 2.74 9.72 2.74 9c0-.958 2.327-1.309 3.13-2.348.711-.919-.064-2.546-.413-3.131-.355-.595-1.176-1.358-1.736-1.803A8.991 8.991 0 0 0 0 9a8.978 8.978 0 0 0 3.09 6.778c.448-.382 1.036-1 1.214-1.3"/><path fill="#BADEFC" d="M9.783 14.478c-1.174-.782.195-1.826-.772-4.77-.405-1.233 1.226-2.349 2.74-2.349 1.512 0 2.721 1.051 2.738 2.348.033 2.413-3.27 5.728-4.706 4.771m6.232-11.107c-3.063 1.744-4.253 1.716-4.667 1.716-.783 0-.548-1.005-1.174-1.957-.47-.714-1.89-1.218-1.957-1.956A2.469 2.469 0 0 1 8.401.022a8.944 8.944 0 0 0-4.68 1.696c.559.445 1.38 1.208 1.735 1.803.349.585 1.124 2.212.414 3.131C5.066 7.692 2.74 8.042 2.74 9c0 .72 1.02 1.543 1.564 2.348.82 1.21.447 2.382 0 3.13-.178.3-.766.918-1.215 1.3A8.958 8.958 0 0 0 9 18c4.963 0 9-4.037 9-9a8.955 8.955 0 0 0-1.985-5.629"/><path fill="#72C472" d="M11.75 7.36c-1.513 0-3.143 1.115-2.739 2.347.967 2.945-.402 3.989.772 4.771 1.435.957 4.739-2.358 4.706-4.771-.017-1.296-1.226-2.348-2.739-2.348"/><path fill="#D0021B" d="M20.609 16.826H12.26a.261.261 0 0 1-.261-.26v-6.262a.26.26 0 0 1 .26-.26h8.349a.261.261 0 0 1 .217.405l-1.99 2.986 1.99 2.985a.26.26 0 0 1-.217.406"/><path fill="#444" d="M12.26 21a.261.261 0 0 1-.26-.26V9.26a.261.261 0 0 1 .522 0v11.48c0 .143-.117.26-.261.26"/></g></svg>