<svg xmlns="http://www.w3.org/2000/svg" width="15" height="18" viewBox="0 0 15 18"><g fill="none" fill-rule="evenodd"><path fill="#D0021B" d="M4.33 7.392c0-.794.31-1.542.873-2.105a2.959 2.959 0 0 1 2.105-.874c.795 0 1.542.31 2.106.874.563.563.873 1.31.873 2.105v5.196l4.255.075V7.392c0-3.989-3.245-7.234-7.234-7.234a7.214 7.214 0 0 0-5.113 2.12A7.211 7.211 0 0 0 .074 7.393v5.177l4.255.019V7.392z"/><path fill="#4A4A4A" d="M10.287 17.18a.424.424 0 0 0 .425.425h3.405c.235 0 .425-.19.425-.426V13.62h-4.255v3.56zM.5 17.605h3.404a.424.424 0 0 0 .426-.425v-3.56H.074v3.56c0 .234.191.425.426.425"/></g></svg>