<svg xmlns="http://www.w3.org/2000/svg" width="18" height="18" viewBox="0 0 18 18"><g fill="none" fill-rule="evenodd"><path fill="#5A7A84" d="M9 11.74a2.74 2.74 0 1 1 0-5.48 2.74 2.74 0 0 1 0 5.48m8.609-4.697h-2.257a6.586 6.586 0 0 0-.477-1.151l1.596-1.596a.391.391 0 0 0 0-.553l-2.214-2.214a.392.392 0 0 0-.553 0l-1.596 1.596a6.583 6.583 0 0 0-1.151-.476V.39a.391.391 0 0 0-.392-.39h-3.13a.391.391 0 0 0-.392.391V2.65a6.504 6.504 0 0 0-1.151.476L4.296 1.529a.392.392 0 0 0-.553 0L1.529 3.743a.393.393 0 0 0 0 .553l1.596 1.596a6.586 6.586 0 0 0-.477 1.151H.391A.391.391 0 0 0 0 7.435v3.13c0 .217.175.392.391.392h2.257c.123.399.282.784.477 1.151l-1.596 1.596a.391.391 0 0 0 0 .553l2.214 2.214c.153.152.4.152.553 0l1.596-1.596c.367.195.752.354 1.151.476v2.258c0 .216.176.391.392.391h3.13a.391.391 0 0 0 .392-.391V15.35a6.504 6.504 0 0 0 1.151-.476l1.596 1.596c.153.152.4.152.553 0l2.214-2.214a.393.393 0 0 0 0-.553l-1.596-1.596c.195-.367.354-.752.477-1.151h2.257a.391.391 0 0 0 .391-.392v-3.13a.391.391 0 0 0-.391-.392"/><path fill="#335262" d="M9 11.74a2.74 2.74 0 1 1 0-5.48 2.74 2.74 0 0 1 0 5.48m0-7.044a4.304 4.304 0 1 0 0 8.608 4.304 4.304 0 0 0 0-8.608"/></g></svg>