<svg xmlns="http://www.w3.org/2000/svg" width="20" height="20" viewBox="0 0 20 20"><g fill="none" fill-rule="evenodd"><path fill="#C19F85" d="M17.727 20a.453.453 0 0 1-.321-.133l-5-5a.455.455 0 0 1-.001-.642l1.811-1.825a.456.456 0 0 1 .322-.134h.001a.45.45 0 0 1 .321.134l5.007 5.006a.454.454 0 0 1 0 .643l-1.818 1.818a.453.453 0 0 1-.322.133"/><path fill="#BFDEE0" d="M8.636.455a8.182 8.182 0 1 1 0 16.363 8.182 8.182 0 0 1 0-16.363"/><path fill="#335262" d="M8.636.91C4.376.91.91 4.374.91 8.635s3.466 7.728 7.727 7.728 7.728-3.467 7.728-7.728c0-4.26-3.467-7.727-7.728-7.727m0 16.364C3.874 17.273 0 13.399 0 8.636 0 3.874 3.874 0 8.636 0c4.763 0 8.637 3.874 8.637 8.636 0 4.763-3.874 8.637-8.637 8.637"/></g></svg>